# xmcd
#
# Track frame offsets:
#	150
#	15740
#	33615
#	48105
#	62974
#	78946
#	94388
#	109281
#	124472
#	140682
#	158113
#
# Disc length: 2275 seconds
#
# Revision: 0
# Processed by: cddbd v1.5.2PL0 Copyright (c) Steve Scherf et al.
# Submitted via: dBpowerAMP V4.0
#
DISCID=9a08e10b
DTITLE=Alvarado Road Show - Ellis Street
DYEAR=2009
DGENRE=Country
TTITLE0=Scream
TTITLE1=Missing You
TTITLE2=Worth Every Minute
TTITLE3=Station leaves A Train
TTITLE4=Another Cup Of Coffee
TTITLE5=Blue Blue Eyes
TTITLE6=Crash
TTITLE7=Dream On
TTITLE8=Whole Lot O f Leavin Going On 
TTITLE9=A Bible, A Bottle and A Gun
TTITLE10=We're A Ramily
EXTD=
EXTT0=
EXTT1=
EXTT2=
EXTT3=
EXTT4=
EXTT5=
EXTT6=
EXTT7=
EXTT8=
EXTT9=
EXTT10=
PLAYORDER=
